<svg xmlns="http://www.w3.org/2000/svg" version="1.0" width="320.000000pt" height="320.000000pt" viewBox="0 0 320.000000 320.000000" preserveAspectRatio="xMidYMid meet">

<g transform="translate(0.000000,320.000000) scale(0.100000,-0.100000)" fill="#ffffff" stroke="none">
<path d="M620 2580 l0 -460 460 0 460 0 0 460 0 460 -460 0 -460 0 0 -460z" fill="#ffffff"/>
<path d="M2001 3024 c-131 -35 -239 -125 -299 -251 -36 -76 -37 -81 -37 -193 0 -112 1 -117 37 -193 49 -103 122 -176 223 -224 139 -65 309 -55 437 26 164 104 246 297 207 483 -36 169 -182 319 -350 357 -61 15 -154 12 -218 -5z" fill="#ffffff"/>
<path d="M1361 1985 c-221 -48 -407 -162 -537 -329 -91 -115 -139 -213 -181 -366 -26 -98 -24 -327 6 -435 93 -346 367 -604 716 -676 49 -10 109 -19 133 -19 l42 0 0 920 0 920 -57 -1 c-32 0 -87 -7 -122 -14z" fill="#ffffff"/>
</g>
</svg>