<svg xmlns="http://www.w3.org/2000/svg" version="1.0" width="1024.000000pt" height="1024.000000pt" viewBox="0 0 1024.000000 1024.000000" preserveAspectRatio="xMidYMid meet">

<g transform="translate(0.000000,1024.000000) scale(0.100000,-0.100000)" fill="#ffffff" stroke="none">
<path d="M1760 10225 c-437 -54 -832 -243 -1149 -549 -339 -328 -550 -761 -601 -1238 -14 -135 -14 -6501 0 -6636 26 -241 90 -466 194 -677 308 -627 900 -1040 1598 -1115 135 -14 6501 -14 6636 0 241 26 466 90 677 194 627 308 1040 900 1115 1598 14 135 14 6501 0 6636 -26 241 -90 466 -194 677 -308 627 -900 1040 -1598 1115 -156 16 -6542 12 -6678 -5z m4593 -2891 c197 -543 361 -993 364 -1000 4 -12 -122 -14 -798 -16 l-804 -3 -81 -230 c-45 -126 -158 -435 -251 -685 -94 -250 -417 -1136 -719 -1967 l-549 -1513 -797 0 -798 0 25 67 c13 38 536 1478 1162 3200 l1138 3133 875 0 875 0 358 -986z m1263 -3529 l703 -1880 -727 -3 c-399 -1 -729 1 -733 5 -4 5 -141 404 -304 888 -164 484 -300 883 -304 887 -3 4 -143 -392 -310 -880 -167 -488 -306 -890 -310 -895 -4 -4 -336 -6 -738 -5 l-731 3 707 1871 c389 1029 711 1876 715 1882 5 9 168 12 668 10 l661 -3 703 -1880z" fill="#ffffff"/>
</g>
</svg>